<svg xmlns="http://www.w3.org/2000/svg" viewBox="0 0 1000 400" role="img" aria-label="Pseudocode lines beside a ruby"><style>svg{--bg:#f6f6f4;--fg:#111;--accent:#cd5119}@media (prefers-color-scheme:dark){svg{--bg:#181818;--fg:#f1f1f1}}</style><rect width="1000" height="400" fill="var(--bg)"/><rect x="260" y="120" width="200" height="18" rx="3" fill="var(--fg)"/><rect x="300" y="160" width="160" height="18" rx="3" fill="var(--fg)"/><rect x="340" y="200" width="190" height="18" rx="3" fill="var(--fg)"/><rect x="340" y="240" width="120" height="18" rx="3" fill="var(--fg)"/><rect x="300" y="280" width="90" height="18" rx="3" fill="var(--fg)"/><rect x="260" y="120" width="60" height="18" rx="3" fill="var(--accent)"/><path d="M640 130h120l40 45-100 105-100-105z" fill="var(--accent)"/><path d="M600 175h200M640 130l20 45 40 105 40-105 20-45M660 175l40-45 40 45" fill="none" stroke="var(--bg)" stroke-width="5" stroke-linejoin="round"/></svg>
